<svg width="64" height="64" fill="none" xmlns="http://www.w3.org/2000/svg"><path d="M45.4845 14.6912C49.0428 16.6646 51.4189 14.8753 54.7904 13.5751C58.8953 11.9843 60.3883 8.67333 63.9984 6.26847C55.2736 7.45652 55.2592 7.46803 48.3467 1.85572C47.5988 1.24588 46.9429 0.771232 46.031 1.11643C44.8861 1.54792 45.3521 2.52885 45.4212 3.35445C45.6599 6.17354 45.5276 9.66289 43.0336 10.7014C38.4252 12.6114 38.3734 15.5053 39.4176 19.4808C40.6805 18.6898 42.7948 17.5103 42.7315 17.3866C40.8444 13.5061 45.1594 14.5071 45.4845 14.6912Z" fill="#CED4DC"/><path d="M0.95867 57.0695C3.6138 56.6467 2.90615 57.8807 2.7278 59.273C2.50917 60.9472 1.78426 63.1737 3.9705 63.7663C5.94962 64.2985 6.11647 61.8246 7.03699 60.6538C7.39081 60.2022 7.58067 59.6211 7.90573 59.1493C8.88666 57.734 9.03337 56.2727 12.0136 56.6495C17.0016 57.2824 19.9588 53.0048 18.6298 48.7014C19.6424 48.7935 20.537 48.7561 20.7902 50.2404C21.3885 53.724 23.0368 54.4575 25.3439 51.9779C27.9673 49.1588 31.5372 49.8406 34.503 48.5605C37.6213 47.2113 42.2441 47.7981 42.0686 41.7687C41.988 39.1309 42.0801 34.6836 43.8406 33.2856C47.8765 30.0925 46.6511 27.0519 45.3278 23.6402C44.8129 22.3055 45.6845 19.4173 42.7992 20.2141C40.449 20.87 37.7421 22.1875 38.3059 25.3115C39.1258 29.8681 36.4275 32.9145 34.1952 36.1305C33.3351 37.379 31.0281 38.9065 30.1507 38.2046C26.6383 35.4056 26.9145 38.5498 25.7955 40.3074C24.8059 41.855 24.734 44.5447 21.7164 44.3002C15.454 43.7996 10.0229 45.9916 5.17868 49.8204C4.28405 50.5281 4.79609 51.4198 4.9802 52.2569C3.30312 52.464 2.00001 53.4076 0.806208 54.4949C-0.232255 55.4327 -0.35595 57.2766 0.95867 57.0695Z" fill="#CED4DC"/></svg>